<?xml version="1.0" encoding="UTF-8"?>
<svg width="25px" height="25px" viewBox="0 0 25 25" version="1.1" xmlns="http://www.w3.org/2000/svg" xmlns:xlink="http://www.w3.org/1999/xlink">
    <!-- Generator: Sketch 53.2 (72643) - https://sketchapp.com -->
    <title>centos</title>
    <desc>Created with Sketch.</desc>
    <g id="Page-1" stroke="none" stroke-width="1" fill="none" fill-rule="evenodd">
        <g id="logo-linux" transform="translate(-46.000000, -42.000000)">
            <g id="centos" transform="translate(46.000000, 42.000000)">
                <polygon id="Fill-1" fill="#AEC92E" points="3.56141667 3.62120833 7.64141667 3.62120833 5.86058333 5.401625 11.2401667 10.781625 11.2401667 11.2124583 10.8089167 11.2124583 5.42975 5.832875 3.56141667 7.70079167"></polygon>
                <polygon id="Fill-2" fill="#A61680" points="17.1 3.62120833 21.05625 3.62120833 21.05625 7.57745833 19.25 5.77120833 13.8095833 11.2124583 13.3779167 11.2124583 13.3779167 10.7812083 18.8191667 5.33995833"></polygon>
                <polygon id="Fill-3" fill="#F6A841" points="13.3780833 13.35 13.8089167 13.35 19.1885 18.7295833 21.0564167 16.8620833 21.0564167 20.9416667 16.9768333 20.9416667 18.75725 19.1604167 13.3780833 13.78125"></polygon>
                <polygon id="Fill-4" fill="#312783" points="10.8089167 13.35 11.2401667 13.35 11.2401667 13.7816667 5.79933333 19.2229167 7.51808333 20.9416667 3.56141667 20.9416667 3.56141667 16.9854167 5.36766667 18.7916667"></polygon>
                <polygon id="Fill-5" fill="#AFC90C" points="3.56141667 8.78154167 5.42975 6.913625 9.7285 11.212375 3.56141667 11.212375"></polygon>
                <polygon id="Fill-6" fill="#312783" points="9.728375 13.35 5.36754167 17.7108333 3.56129167 15.905 3.56129167 13.35"></polygon>
                <polygon id="Fill-7" fill="#A61680" points="0 12.3429167 2.7975 15.1408333 2.7975 12.58625 10.4920833 12.58625 10.7975 12.28125 10.4920833 11.9766667 2.7975 11.9766667 2.7975 9.54541667"></polygon>
                <polygon id="Fill-8" fill="#A61680" points="14.88975 11.2123333 19.2501667 6.85191667 21.0564167 8.65816667 21.0564167 11.2123333"></polygon>
                <polygon id="Fill-9" fill="#F6A841" points="21.0563333 15.78125 19.1888333 17.6495833 14.88925 13.35 21.0563333 13.35"></polygon>
                <polygon id="Fill-10" fill="#312783" points="21.820875 11.9765417 14.1254583 11.9765417 13.8204583 12.2815417 14.1250417 12.586125 21.820875 12.586125 21.820875 15.0169583 24.6179583 12.2190417 21.820875 9.42195833"></polygon>
                <polygon id="Fill-11" fill="#F6A841" points="13.3780833 14.8620417 17.6768333 19.160375 15.896 20.941625 13.3780833 20.941625"></polygon>
                <polygon id="Fill-12" fill="#AFC90C" points="12.004125 14.0982917 12.004125 21.705375 9.36245833 21.705375 12.2474583 24.590375 15.1320417 21.705375 12.6132917 21.705375 12.6132917 14.0982917 12.309125 13.792875"></polygon>
                <polygon id="Fill-13" fill="#312783" points="6.87945833 19.2227917 11.2402917 14.8619583 11.2402917 20.9415417 8.59820833 20.9415417"></polygon>
                <polygon id="Fill-14" fill="#A61680" points="13.3780833 9.72858333 17.6768333 5.42983333 15.896 3.649 13.3780833 3.649"></polygon>
                <polygon id="Fill-15" fill="#F6A841" points="12.2475 0.000166666667 9.36208333 2.88516667 12.0041667 2.88516667 12.0041667 10.49225 12.3091667 10.79725 12.6133333 10.49225 12.6133333 2.88516667 15.1320833 2.88516667"></polygon>
                <polygon id="Fill-16" fill="#AFC90C" points="6.87945833 5.367625 11.2402917 9.72845833 11.2402917 3.648875 8.59820833 3.648875"></polygon>
            </g>
        </g>
    </g>
</svg>