<?xml version="1.0" encoding="UTF-8"?>
<svg width="25px" height="25px" viewBox="0 0 25 17" version="1.1" xmlns="http://www.w3.org/2000/svg" xmlns:xlink="http://www.w3.org/1999/xlink">
    <!-- Generator: Sketch 53.2 (72643) - https://sketchapp.com -->
    <title>cpanel</title>
    <desc>Created with Sketch.</desc>
    <defs>
        <polygon id="path-1" points="0.0373658719 0.00819745673 16.3510909 0.00819745673 16.3510909 16.7671904 0.0373658719 16.7671904"></polygon>
        <polygon id="path-3" points="0 0.0403097583 10.9543239 0.0403097583 10.9543239 12.6818182 0 12.6818182"></polygon>
    </defs>
    <g id="Page-1" stroke="none" stroke-width="1" fill="none" fill-rule="evenodd">
        <g id="app-with-logo" transform="translate(-87.000000, -63.000000)">
            <g id="cpanel" transform="translate(87.000000, 63.000000)">
                <g id="Group-3" transform="translate(8.636364, 0.037273)">
                    <mask id="mask-2" fill="white">
                        <use xlink:href="#path-1"></use>
                    </mask>
                    <g id="Clip-2"></g>
                    <path d="M8.45256364,0.0103954545 C9.05801818,0.0258045455 9.80810909,-0.0147863636 10.5574727,0.0301227273 C13.0559727,0.179759091 15.1686091,1.81921364 16.0260636,4.18903182 C17.0643818,7.05871364 15.6206545,11.4691227 11.6135636,12.4714864 C11.1108818,12.5971682 10.6005182,12.6555318 10.0850636,12.6583955 C8.90333636,12.6649409 7.72156364,12.6582136 6.53988182,12.6635773 C6.37192727,12.66435 6.31401818,12.6453955 6.36838182,12.4515773 C6.60929091,11.5928045 6.82751818,10.7276682 7.06310909,9.86739545 C7.28115455,9.07103182 7.93751818,8.56539545 8.76392727,8.55062273 C9.18042727,8.54321364 9.59724545,8.55366818 10.0137909,8.54698636 C11.1825636,8.52821364 12.1014727,7.64907727 12.1924727,6.46812273 C12.2776091,5.36312273 11.4621091,4.33053182 10.3452909,4.14644091 C10.0009273,4.08966818 9.64951818,4.12539545 9.30133636,4.12316818 C8.80897273,4.11998636 8.31642727,4.12894091 7.82424545,4.11839545 C7.67301818,4.11516818 7.61733636,4.16780455 7.57979091,4.30821364 C6.82038182,7.14907727 6.0562,9.98862273 5.29315455,12.8285318 C5.0637,13.6826682 4.83747273,14.5376682 4.60497273,15.3909409 C4.36697273,16.2643955 3.71392727,16.7602136 2.80647273,16.7616227 C1.95047273,16.7629409 1.09438182,16.7546682 0.238563636,16.7670773 C0.0242454545,16.7701682 0.0120636364,16.7103955 0.0612909091,16.5264864 C1.26788182,12.0210773 2.4692,7.51430455 3.67165455,3.00780455 C3.81588182,2.46739545 3.9597,1.92680455 4.10679091,1.38716818 C4.34692727,0.505759091 4.98156364,0.0164863636 5.89951818,0.01135 C6.70247273,0.00680454545 7.50547273,0.0103954545 8.45256364,0.0103954545" id="Fill-1" fill="#F26C32" mask="url(#mask-2)"></path>
                </g>
                <g id="Group-6" transform="translate(0.000000, 4.128182)">
                    <mask id="mask-4" fill="white">
                        <use xlink:href="#path-3"></use>
                    </mask>
                    <g id="Clip-5"></g>
                    <path d="M8.37390455,0.0440409091 C9.17667727,0.0439045455 9.97949545,0.0482227273 10.7822227,0.0403590909 C10.9523591,0.0387227273 10.9799045,0.0772227273 10.93545,0.241586364 C10.7067682,1.08785909 10.4970864,1.93926818 10.2683136,2.78554091 C10.0308591,3.66408636 9.40231364,4.13449545 8.49272273,4.14499545 C7.69790455,4.15408636 6.90167727,4.10408636 6.10854091,4.17104091 C5.06999545,4.25872273 4.20904091,5.16422273 4.15263182,6.20354091 C4.09004091,7.35608636 4.80495,8.33008636 5.87945,8.54054091 C6.41908636,8.64622273 6.96722273,8.56867727 7.51104091,8.58958636 C7.63908636,8.59449545 7.76690455,8.58267727 7.89435909,8.61835909 C8.30540455,8.73345 8.56408636,9.13167727 8.45640455,9.54758636 C8.19695,10.5498591 7.92031364,11.5477682 7.65095,12.5475409 C7.63263182,12.6155409 7.61490455,12.6761318 7.52258636,12.6758591 C6.38145,12.6723591 5.22758636,12.7634045 4.13208636,12.3403591 C1.81976818,11.4474045 0.416495455,9.78667727 0.0599954545,7.32263182 C-0.269459091,5.04526818 0.745722727,2.09045 3.40231364,0.747768182 C4.30181364,0.293177273 5.25099545,0.0462681818 6.26095,0.04445 C6.96526818,0.0431772727 7.66958636,0.0441772727 8.37390455,0.0440409091" id="Fill-4" fill="#F26C31" mask="url(#mask-4)"></path>
                </g>
            </g>
        </g>
    </g>
</svg>
