<?xml version="1.0" encoding="UTF-8"?>
<svg width="20px" height="25px" viewBox="0 0 20 25" version="1.1" xmlns="http://www.w3.org/2000/svg" xmlns:xlink="http://www.w3.org/1999/xlink">
    <!-- Generator: Sketch 53.2 (72643) - https://sketchapp.com -->
    <title>debian</title>
    <desc>Created with Sketch.</desc>
    <defs>
        <polygon id="path-1" points="0.137747368 0.157142857 19.7915789 0.157142857 19.7915789 24.5798319 0.137747368 24.5798319"></polygon>
        <polygon id="path-3" points="0.0855578947 0.22675 1.22682105 0.22675 1.22682105 0.4336 0.0855578947 0.4336"></polygon>
    </defs>
    <g id="Page-1" stroke="none" stroke-width="1" fill="none" fill-rule="evenodd">
        <g id="logo-linux" transform="translate(-47.000000, -78.000000)">
            <g id="debian" transform="translate(47.000000, 78.000000)">
                <path d="M11.8238947,13.2068067 C11.4106316,13.2068067 11.9026316,13.4227731 12.4335789,13.5011345 C12.5912632,13.3834874 12.7091579,13.2656303 12.8468421,13.167521 C12.5125263,13.2460924 12.1584211,13.2460924 11.8238947,13.2068067" id="Fill-1" fill="#CD4652"></path>
                <path d="M14.0274316,12.6570798 C14.2634316,12.3232563 14.4404842,11.969895 14.4994316,11.5772479 C14.4404842,11.8520378 14.3028,12.0877521 14.1649053,12.3427941 C13.3977474,12.8142227 14.0863789,12.0484664 14.1649053,11.7539286 C13.3388,12.7944748 14.0470105,12.3822899 14.0274316,12.6570798" id="Fill-3" fill="#CD4652"></path>
                <path d="M14.8339579,10.5563445 C14.8733263,9.82987395 14.6764842,10.0655882 14.6175368,10.3403782 C14.6962737,10.3796639 14.7552211,10.8508824 14.8339579,10.5563445" id="Fill-5" fill="#CD4652"></path>
                <path d="M10.2696211,0.543907563 C10.5058316,0.583193277 10.7418316,0.602731092 10.7220421,0.661764706 C10.9582526,0.602731092 10.9976211,0.563445378 10.2696211,0.543907563" id="Fill-7" fill="#CD4652"></path>
                <polygon id="Fill-9" fill="#CD4652" points="10.7221263 0.661659664 10.5648632 0.681197479 10.7023368 0.681197479"></polygon>
                <g id="Group-13" transform="translate(0.000000, 0.229622)">
                    <mask id="mask-2" fill="white">
                        <use xlink:href="#path-1"></use>
                    </mask>
                    <g id="Clip-12"></g>
                    <path d="M17.5095368,10.6212185 C17.5293263,11.2691176 17.3126947,11.5831933 17.1160632,12.1527311 L16.7619579,12.3292017 C16.4865895,12.8985294 16.8013263,12.6827731 16.5849053,13.1340336 C16.1324842,13.5268908 15.2274316,14.3905462 14.9322737,14.4691176 C14.7158526,14.4495798 15.0699579,14.2140756 15.1289053,14.1157563 C14.5192211,14.5281513 14.6371158,14.7441176 13.7124842,14.9796218 L13.6929053,14.9207983 C11.4105895,16.0004202 8.24322105,13.8802521 8.28258947,10.9943277 C8.26301053,11.1710084 8.22364211,11.1317227 8.16448421,11.1905462 C8.04658947,9.71806723 8.85311579,8.2262605 10.2105895,7.61743697 C11.5484842,6.95 13.1025895,7.22478992 14.0470105,8.10840336 C13.5354316,7.42121849 12.4929053,6.6947479 11.2533263,6.77331933 C10.0533263,6.79285714 8.91227368,7.55861345 8.53837895,8.38319328 C7.92848421,8.77584034 7.84974737,9.87521008 7.57437895,10.0911765 C7.22027368,12.7415966 8.26301053,13.8997899 10.0335368,15.2544118 C10.3089053,15.4313025 10.1122737,15.4703782 10.1516421,15.6077731 C9.56153684,15.3329832 9.03016842,14.9207983 8.57774737,14.4102941 C8.81374737,14.7636555 9.06953684,15.097479 9.40406316,15.352521 C8.83353684,15.1563025 8.10553684,14.0176471 7.88911579,13.9588235 C8.83353684,15.6668067 11.7649053,16.962605 13.2796421,16.3147059 C12.5714316,16.3342437 11.6861684,16.3342437 10.8796421,16.0397059 C10.5451158,15.8630252 10.0926947,15.5096639 10.1714316,15.4508403 C12.2764842,16.2163866 14.4206947,16.0397059 16.2308,14.5869748 C16.6832211,14.2336134 17.1948,13.625 17.3324842,13.625 C17.1160632,13.9390756 17.3718526,13.7819328 17.1948,14.0569328 C17.6670105,13.3304622 16.9979579,13.762395 17.6670105,12.8004202 L17.9228,13.1340336 C17.8242737,12.5254202 18.6899579,11.7796218 18.5916421,10.8176471 C18.7882737,10.5231092 18.8080632,11.1317227 18.6112211,11.8189076 C18.9063789,11.0531513 18.6899579,10.9352941 18.7684842,10.3071429 C18.8472211,10.5231092 18.9457474,10.7390756 19.0049053,10.9745798 C18.8080632,10.2285714 19.1817474,9.73781513 19.2800632,9.30588235 C19.1817474,9.26659664 18.9851158,9.63970588 18.9457474,8.77584034 C18.9653263,8.40273109 19.0638526,8.57941176 19.0834316,8.48130252 C19.0242737,8.44201681 18.8276421,8.16722689 18.7095368,7.61743697 C18.7882737,7.48004202 18.9261684,7.9512605 19.0440632,7.97079832 C18.9851158,7.51932773 18.8472211,7.1855042 18.8472211,6.85189076 C18.5129053,6.14495798 18.7293263,6.95 18.4537474,6.55735294 C18.0800632,5.43823529 18.7491158,6.28256303 18.7882737,5.79159664 C19.3392211,6.57710084 19.6541684,7.79411765 19.7916421,8.30462185 C19.6735368,7.67647059 19.5162737,7.08739496 19.2998526,6.49852941 C19.4573263,6.57710084 19.0242737,5.24201681 19.5162737,6.12542017 C18.9851158,4.22121849 17.2931158,2.45420168 15.7390105,1.62962185 C15.9356421,1.80630252 16.1718526,2.02226891 16.0929053,2.06155462 C15.3059579,1.59033613 15.4436421,1.55105042 15.3455368,1.37436975 C14.7158526,1.11932773 14.6764842,1.39411765 14.2436421,1.37436975 C13.0634316,0.746218487 12.8272211,0.805042017 11.7451158,0.412394958 L11.7844842,0.648109244 C10.9975368,0.373109244 10.8796421,0.746218487 10.0139579,0.648109244 C9.97458947,0.608823529 10.2893263,0.490966387 10.5649053,0.451680672 C9.79753684,0.549789916 9.83690526,0.314285714 9.08911579,0.490966387 C9.26637895,0.353571429 9.46301053,0.275 9.65964211,0.157142857 C9.04974737,0.196428571 8.18427368,0.530252101 8.44006316,0.235714286 C7.43669474,0.687184874 5.64637895,1.31554622 4.62322105,2.25777311 L4.60364211,2.04201681 C4.13143158,2.59159664 2.57732632,3.7105042 2.45922105,4.41743697 L2.34111579,4.45672269 C2.08532632,4.84936975 1.92806316,5.32058824 1.75101053,5.73277311 C1.43606316,6.26281513 1.2788,5.92920168 1.33795789,6.02731092 C0.708273684,7.28361345 0.393536842,8.32415966 0.137747368,9.18802521 C0.334378947,9.46302521 0.137747368,10.8962185 0.216273684,12.0151261 C-0.0984631579,17.630042 4.15101053,23.0680672 8.79416842,24.3247899 C9.4828,24.5602941 10.4861684,24.5602941 11.3516421,24.5798319 C10.3286947,24.2852941 10.2105895,24.4226891 9.20722105,24.0888655 C8.49901053,23.7357143 8.34153684,23.362605 7.83016842,22.9308824 L8.04658947,23.2840336 C7.04322105,22.9308824 7.45627368,22.832563 6.64974737,22.5970588 L6.86616842,22.302521 C6.55122105,22.2827731 6.02006316,21.772479 5.8628,21.4779412 L5.52827368,21.497479 C5.09543158,20.967437 4.87901053,20.5945378 4.8988,20.3 L4.78069474,20.5159664 C4.64301053,20.3 3.22637895,18.5527311 3.95437895,18.964916 C3.81669474,18.8472689 3.63964211,18.7686975 3.44301053,18.3955882 L3.60027368,18.2189076 C3.24616842,17.767437 2.93143158,17.1783613 2.95101053,16.9821429 C3.14785263,17.237395 3.28553684,17.2962185 3.40364211,17.3355042 C2.51837895,15.1170168 2.45922105,17.2176471 1.79016842,15.0777311 L1.92806316,15.0581933 C1.80995789,14.9010504 1.75101053,14.7046218 1.65248421,14.5281513 L1.73122105,13.9195378 C1.08216842,13.1733193 1.53458947,10.7390756 1.63290526,9.4039916 C1.69206316,8.87394958 2.18385263,8.28508403 2.53795789,7.38193277 L2.32153684,7.34264706 C2.73458947,6.61638655 4.72174737,4.39768908 5.64637895,4.51554622 C6.07922105,3.96596639 5.54806316,4.51554622 5.46932632,4.37815126 C6.45290526,3.35735294 6.74806316,3.65168067 7.41711579,3.475 C8.12532632,3.06281513 6.80722105,3.63214286 7.14153684,3.31806723 C8.36132632,3.0039916 8.00722105,2.61134454 9.62048421,2.45420168 C9.77774737,2.53277311 9.22701053,2.59159664 9.08911579,2.70945378 C10.1122737,2.21848739 12.3156421,2.33634454 13.7714316,3.0039916 C15.4436421,3.76953782 17.3126947,6.08613445 17.3914316,8.24558824 L17.4701684,8.26533613 C17.4308,9.12920168 17.6080632,10.1304622 17.2931158,11.0531513 L17.5095368,10.6212185 Z" id="Fill-11" fill="#CD4652" mask="url(#mask-2)"></path>
                </g>
                <path d="M7.37755789,13.7760294 L7.31861053,14.0510294 C7.5744,14.4239286 7.79082105,14.8165756 8.14492632,15.0913655 C7.88913684,14.6203571 7.71208421,14.4239286 7.37755789,13.7760294" id="Fill-14" fill="#CD4652"></path>
                <path d="M8.00717895,13.7368277 C7.86949474,13.5796849 7.77117895,13.4030042 7.69244211,13.2067857 C7.77117895,13.5403992 7.96781053,13.834937 8.12528421,14.1097269 L8.00717895,13.7368277 Z" id="Fill-16" fill="#CD4652"></path>
                <path d="M19.2210947,11.302416 L19.1621474,11.4595588 C19.0638316,12.2448529 18.8276211,13.0103992 18.4537263,13.7171218 C18.8669895,12.9711134 19.1227789,12.1467437 19.2210947,11.302416" id="Fill-18" fill="#CD4652"></path>
                <g id="Group-22" transform="translate(10.105263, 0.019538)">
                    <mask id="mask-4" fill="white">
                        <use xlink:href="#path-3"></use>
                    </mask>
                    <g id="Clip-21"></g>
                    <path d="M0.262821053,0.39035 C0.538189474,0.2736 0.931663158,0.32035 1.22682105,0.22685 C0.852926316,0.2736 0.459663158,0.29685 0.0855578947,0.3436 L0.262821053,0.39035 Z" id="Fill-20" fill="#CD4652" mask="url(#mask-4)"></path>
                </g>
                <path d="M0.668884211,5.4912395 C0.728042105,6.08010504 0.216463158,6.29628151 0.786989474,5.90342437 C1.08214737,5.23598739 0.668884211,5.7267437 0.668884211,5.4912395" id="Fill-23" fill="#CD4652"></path>
                <path d="M0.0197263158,8.20048319 C0.137831579,7.80783613 0.157410526,7.57233193 0.216357895,7.35636555 C-0.137747368,7.80783613 0.0590947368,7.90615546 0.0197263158,8.20048319" id="Fill-25" fill="#CD4652"></path>
            </g>
        </g>
    </g>
</svg>