<?xml version="1.0" encoding="UTF-8"?>
<svg width="30px" height="18px" viewBox="0 0 30 18" version="1.1" xmlns="http://www.w3.org/2000/svg" xmlns:xlink="http://www.w3.org/1999/xlink">
    <!-- Generator: Sketch 53.2 (72643) - https://sketchapp.com -->
    <title>docker</title>
    <desc>Created with Sketch.</desc>
    <defs>
        <polygon id="path-1" points="0.0872244899 0.0648526316 26.3398947 0.0648526316 26.3398947 17.0526316 0.0872244899 17.0526316"></polygon>
        <polygon id="path-3" points="0 17.0930526 29.9188421 17.0930526 29.9188421 0.105263158 0 0.105263158"></polygon>
    </defs>
    <g id="Page-1" stroke="none" stroke-width="1" fill="none" fill-rule="evenodd">
        <g id="app-with-logo" transform="translate(-352.000000, -63.000000)">
            <g id="docker" transform="translate(352.000000, 63.000000)">
                <g id="Group-3" transform="translate(3.578947, 0.040421)">
                    <mask id="mask-2" fill="white">
                        <use xlink:href="#path-1"></use>
                    </mask>
                    <g id="Clip-2"></g>
                    <path d="M13.7217368,5.42927368 L16.4037368,5.42927368 L16.4037368,8.17137895 L17.7603684,8.17137895 C18.3865789,8.17137895 19.0305789,8.05969474 19.6238421,7.85864211 C19.9154211,7.76001053 20.2420526,7.62253684 20.5299474,7.44969474 C20.1512105,6.95516842 19.9579474,6.33085263 19.901,5.7158 C19.8239474,4.87885263 19.9922632,3.78937895 20.5588947,3.13443158 L20.8407895,2.80832632 L21.1766842,3.07843158 C22.0228947,3.75832632 22.7340526,4.70769474 22.8595263,5.79022105 C23.8781579,5.49074737 25.0737368,5.56158947 25.9719474,6.07969474 L26.3399474,6.29201053 L26.1460526,6.67053684 C25.3867895,8.15222105 23.7996316,8.61158947 22.2476316,8.53011579 C19.9253158,14.3142211 14.8695263,17.0526421 8.73942105,17.0526421 C5.57215789,17.0526421 2.66657895,15.8686421 1.01215789,13.0592737 L0.984789474,13.0129579 L0.744052632,12.5227474 C0.184789474,11.2856947 -0.00121052632,9.93053684 0.125,8.57674737 L0.162578947,8.17137895 L2.45636842,8.17137895 L2.45636842,5.42927368 L5.13857895,5.42927368 L5.13857895,2.74737895 L10.5027895,2.74737895 L10.5027895,0.0648526316 L13.7217368,0.0648526316 L13.7217368,5.42927368 Z" id="Fill-1" fill="#394D54" mask="url(#mask-2)"></path>
                </g>
                <path d="M25.9908526,6.4844 C26.1707474,5.0864 25.1246421,3.98850526 24.4758,3.46745263 C23.7281158,4.33155789 23.6119053,6.59650526 24.7846421,7.55029474 C24.1302211,8.13155789 22.7513789,8.65871579 21.3393789,8.65871579 L4.14885263,8.65871579 C4.01169474,10.1326105 4.27053684,11.4900842 4.86158947,12.6524 L5.05716842,13.0098737 C5.18095789,13.2202947 5.31622105,13.4231368 5.46253684,13.6180842 C6.16916842,13.6634526 6.82074737,13.6790316 7.41674737,13.6662947 L7.41695789,13.6662947 C8.58843158,13.6400842 9.54443158,13.5019789 10.2690632,13.2505053 C10.3769579,13.2131368 10.4941158,13.2707158 10.5315895,13.3782947 C10.5689579,13.4858737 10.5118,13.6037684 10.4043263,13.6408211 C10.3081158,13.6744 10.2073789,13.7052421 10.1036947,13.7354526 L10.1030632,13.7354526 C9.53285263,13.8982947 8.92106316,14.0079789 8.13201053,14.0562947 C8.17843158,14.0571368 8.08348421,14.0635579 8.08285263,14.0635579 C8.05611579,14.0653474 8.02243158,14.0689263 7.99527368,14.0702947 C7.68464211,14.0880842 7.34948421,14.0918737 7.00674737,14.0918737 C6.6318,14.0918737 6.26253684,14.0845053 5.84990526,14.0635579 L5.83927368,14.0702947 C7.2718,15.6804 9.51106316,16.6456632 12.3183263,16.6456632 C18.2593789,16.6456632 23.2988526,14.0124 25.5301158,8.09934737 C27.1133789,8.26187368 28.6351684,7.8584 29.3273789,6.50713684 C28.2248526,5.87113684 26.8070632,6.07397895 25.9908526,6.4844" id="Fill-4" fill="#00AADA"></path>
                <path d="M25.9908526,6.4844 C26.1707474,5.0864 25.1246421,3.98850526 24.4758,3.46745263 C23.7281158,4.33155789 23.6119053,6.59650526 24.7846421,7.55029474 C24.1302211,8.13155789 22.7513789,8.65871579 21.3393789,8.65871579 L5.16695789,8.65871579 C5.09664211,10.9159789 5.93443158,12.6297684 7.41674737,13.6662947 L7.41695789,13.6662947 C8.58843158,13.6400842 9.54443158,13.5019789 10.2690632,13.2505053 C10.3769579,13.2131368 10.4941158,13.2707158 10.5315895,13.3782947 C10.5689579,13.4858737 10.5118,13.6037684 10.4043263,13.6408211 C10.3081158,13.6744 10.2073789,13.7052421 10.1036947,13.7354526 L10.1030632,13.7354526 C9.53285263,13.8982947 8.86864211,14.0216632 8.07958947,14.0702947 C8.07895789,14.0702947 8.06022105,14.0521895 8.06022105,14.0521895 C10.0819053,15.0891368 13.0136947,15.0856632 16.3752737,13.7946105 C20.1442211,12.3467158 23.6511684,9.58797895 26.0982211,6.43292632 C26.0615895,6.44997895 26.0253789,6.46661053 25.9908526,6.4844" id="Fill-6" fill="#24B8EB"></path>
                <path d="M4.18133684,10.4496526 C4.28786316,11.2395474 4.51891579,11.9788105 4.86165263,12.6523895 L5.05712632,13.0098632 C5.18091579,13.2202842 5.31617895,13.4231263 5.4626,13.6180737 C6.16923158,13.6634421 6.82070526,13.6790211 7.41691579,13.6662842 C8.58838947,13.6400737 9.54438947,13.5019684 10.2690211,13.2504947 C10.3769158,13.2131263 10.4941789,13.2707053 10.5315474,13.3782842 C10.5690211,13.4858632 10.5118632,13.6037579 10.4042842,13.6408105 C10.3080737,13.6743895 10.2073368,13.7052316 10.1037579,13.7354421 L10.1031263,13.7354421 C9.53291579,13.8982842 8.87196842,14.0148105 8.08281053,14.0635474 C8.05617895,14.0653368 8.00881053,14.0656526 7.98133684,14.0669158 C7.67102105,14.0844947 7.33902105,14.0952316 6.99649474,14.0952316 C6.62154737,14.0952316 6.23807368,14.0880737 5.82523158,14.0669158 C7.25786316,15.6770211 9.51112632,16.6456526 12.3183895,16.6456526 C17.4047053,16.6456526 21.8294421,14.7152316 24.3979684,10.4496526 L4.18133684,10.4496526 Z" id="Fill-8" fill="#008BB8"></path>
                <path d="M5.32175789,10.4496526 C5.62565263,11.8363895 6.35649474,12.9244947 7.41691579,13.6662842 C8.58838947,13.6400737 9.54438947,13.5019684 10.2690211,13.2504947 C10.3769158,13.2131263 10.4941789,13.2707053 10.5315474,13.3782842 C10.5690211,13.4858632 10.5118632,13.6037579 10.4042842,13.6408105 C10.3080737,13.6743895 10.2073368,13.7052316 10.1037579,13.7354421 L10.1031263,13.7354421 C9.53291579,13.8982842 8.85817895,14.0148105 8.06891579,14.0635474 C10.0906,15.1007053 13.0140737,15.0856526 16.3753368,13.7946 C18.4083895,13.0131263 20.3652316,11.8504947 22.1212316,10.4496526 L5.32175789,10.4496526 Z" id="Fill-10" fill="#039BC6"></path>
                <mask id="mask-4" fill="white">
                    <use xlink:href="#path-3"></use>
                </mask>
                <g id="Clip-13"></g>
                <path d="M6.48231579,8.24147368 L8.80673684,8.24147368 L8.80673684,5.91673684 L6.48231579,5.91673684 L6.48231579,8.24147368 Z M6.67578947,8.048 L6.85936842,8.048 L6.85936842,6.11063158 L6.67578947,6.11063158 L6.67578947,8.048 Z M7.02052632,8.048 L7.21147368,8.048 L7.21147368,6.11063158 L7.02052632,6.11063158 L7.02052632,8.048 Z M7.37294737,8.048 L7.56368421,8.048 L7.56368421,6.11063158 L7.37294737,6.11063158 L7.37294737,8.048 Z M7.72515789,8.048 L7.91610526,8.048 L7.91610526,6.11063158 L7.72515789,6.11063158 L7.72515789,8.048 Z M8.07726316,8.048 L8.268,8.048 L8.268,6.11063158 L8.07726316,6.11063158 L8.07726316,8.048 Z M8.42947368,8.048 L8.61326316,8.048 L8.61326316,6.11063158 L8.42947368,6.11063158 L8.42947368,8.048 Z" id="Fill-12" fill="#00ACD3" mask="url(#mask-4)"></path>
                <path d="M9.16431579,5.55926316 L11.4890526,5.55926316 L11.4890526,3.23463158 L9.16431579,3.23463158 L9.16431579,5.55926316 Z M9.35810526,5.36547368 L9.54147368,5.36547368 L9.54147368,3.42831579 L9.35810526,3.42831579 L9.35810526,5.36547368 Z M9.70336842,5.36547368 L9.894,5.36547368 L9.894,3.42831579 L9.70336842,3.42831579 L9.70336842,5.36547368 Z M10.0548421,5.36547368 L10.2457895,5.36547368 L10.2457895,3.42831579 L10.0548421,3.42831579 L10.0548421,5.36547368 Z M10.4073684,5.36547368 L10.598,5.36547368 L10.598,3.42831579 L10.4073684,3.42831579 L10.4073684,5.36547368 Z M10.7597895,5.36547368 L10.9505263,5.36547368 L10.9505263,3.42831579 L10.7597895,3.42831579 L10.7597895,5.36547368 Z M11.1117895,5.36547368 L11.2955789,5.36547368 L11.2955789,3.42831579 L11.1117895,3.42831579 L11.1117895,5.36547368 Z" id="Fill-14" fill="#00ACD3" mask="url(#mask-4)"></path>
                <path d="M9.16431579,8.24147368 L11.4890526,8.24147368 L11.4890526,5.91673684 L9.16431579,5.91673684 L9.16431579,8.24147368 Z M9.35810526,8.048 L9.54147368,8.048 L9.54147368,6.11063158 L9.35810526,6.11063158 L9.35810526,8.048 Z M9.70336842,8.048 L9.894,8.048 L9.894,6.11063158 L9.70336842,6.11063158 L9.70336842,8.048 Z M10.0548421,8.048 L10.2457895,8.048 L10.2457895,6.11063158 L10.0548421,6.11063158 L10.0548421,8.048 Z M10.4073684,8.048 L10.598,8.048 L10.598,6.11063158 L10.4073684,6.11063158 L10.4073684,8.048 Z M10.7597895,8.048 L10.9505263,8.048 L10.9505263,6.11063158 L10.7597895,6.11063158 L10.7597895,8.048 Z M11.1117895,8.048 L11.2955789,8.048 L11.2955789,6.11063158 L11.1117895,6.11063158 L11.1117895,8.048 Z" id="Fill-15" fill="#20C2EF" mask="url(#mask-4)"></path>
                <path d="M11.8467368,8.24147368 L14.1715789,8.24147368 L14.1715789,5.91673684 L11.8467368,5.91673684 L11.8467368,8.24147368 Z M12.0402105,8.048 L12.2237895,8.048 L12.2237895,6.11063158 L12.0402105,6.11063158 L12.0402105,8.048 Z M12.3851579,8.048 L12.5758947,8.048 L12.5758947,6.11063158 L12.3851579,6.11063158 L12.3851579,8.048 Z M12.7377895,8.048 L12.9284211,8.048 L12.9284211,6.11063158 L12.7377895,6.11063158 L12.7377895,8.048 Z M13.09,8.048 L13.2806316,8.048 L13.2806316,6.11063158 L13.09,6.11063158 L13.09,8.048 Z M13.4416842,8.048 L13.6326316,8.048 L13.6326316,6.11063158 L13.4416842,6.11063158 L13.4416842,8.048 Z M13.7943158,8.048 L13.9776842,8.048 L13.9776842,6.11063158 L13.7943158,6.11063158 L13.7943158,8.048 Z" id="Fill-16" fill="#00ACD3" mask="url(#mask-4)"></path>
                <path d="M11.8467368,5.55926316 L14.1715789,5.55926316 L14.1715789,3.23463158 L11.8467368,3.23463158 L11.8467368,5.55926316 Z M12.0402105,5.36547368 L12.2237895,5.36547368 L12.2237895,3.42831579 L12.0402105,3.42831579 L12.0402105,5.36547368 Z M12.3851579,5.36547368 L12.5758947,5.36547368 L12.5758947,3.42831579 L12.3851579,3.42831579 L12.3851579,5.36547368 Z M12.7377895,5.36547368 L12.9284211,5.36547368 L12.9284211,3.42831579 L12.7377895,3.42831579 L12.7377895,5.36547368 Z M13.09,5.36547368 L13.2806316,5.36547368 L13.2806316,3.42831579 L13.09,3.42831579 L13.09,5.36547368 Z M13.4416842,5.36547368 L13.6326316,5.36547368 L13.6326316,3.42831579 L13.4416842,3.42831579 L13.4416842,5.36547368 Z M13.7943158,5.36547368 L13.9776842,5.36547368 L13.9776842,3.42831579 L13.7943158,3.42831579 L13.7943158,5.36547368 Z" id="Fill-17" fill="#20C2EF" mask="url(#mask-4)"></path>
                <path d="M14.5290526,8.24147368 L16.8536842,8.24147368 L16.8536842,5.91673684 L14.5290526,5.91673684 L14.5290526,8.24147368 Z M14.7225263,8.048 L14.9063158,8.048 L14.9063158,6.11063158 L14.7225263,6.11063158 L14.7225263,8.048 Z M15.0677895,8.048 L15.2585263,8.048 L15.2585263,6.11063158 L15.0677895,6.11063158 L15.0677895,8.048 Z M15.4198947,8.048 L15.6106316,8.048 L15.6106316,6.11063158 L15.4198947,6.11063158 L15.4198947,8.048 Z M15.7721053,8.048 L15.9628421,8.048 L15.9628421,6.11063158 L15.7721053,6.11063158 L15.7721053,8.048 Z M16.1243158,8.048 L16.3152632,8.048 L16.3152632,6.11063158 L16.1243158,6.11063158 L16.1243158,8.048 Z M16.4764211,8.048 L16.6602105,8.048 L16.6602105,6.11063158 L16.4764211,6.11063158 L16.4764211,8.048 Z" id="Fill-18" fill="#20C2EF" mask="url(#mask-4)"></path>
                <path d="M14.5290526,5.55926316 L16.8536842,5.55926316 L16.8536842,3.23463158 L14.5290526,3.23463158 L14.5290526,5.55926316 Z M14.7225263,5.36547368 L14.9063158,5.36547368 L14.9063158,3.42831579 L14.7225263,3.42831579 L14.7225263,5.36547368 Z M15.0677895,5.36547368 L15.2585263,5.36547368 L15.2585263,3.42831579 L15.0677895,3.42831579 L15.0677895,5.36547368 Z M15.4198947,5.36547368 L15.6106316,5.36547368 L15.6106316,3.42831579 L15.4198947,3.42831579 L15.4198947,5.36547368 Z M15.7721053,5.36547368 L15.9628421,5.36547368 L15.9628421,3.42831579 L15.7721053,3.42831579 L15.7721053,5.36547368 Z M16.1243158,5.36547368 L16.3152632,5.36547368 L16.3152632,3.42831579 L16.1243158,3.42831579 L16.1243158,5.36547368 Z M16.4764211,5.36547368 L16.6602105,5.36547368 L16.6602105,3.42831579 L16.4764211,3.42831579 L16.4764211,5.36547368 Z" id="Fill-19" fill="#00ACD3" mask="url(#mask-4)"></path>
                <path d="M14.5290526,2.87694737 L16.8536842,2.87694737 L16.8536842,0.552210526 L14.5290526,0.552210526 L14.5290526,2.87694737 Z M14.7225263,2.68315789 L14.9063158,2.68315789 L14.9063158,0.745684211 L14.7225263,0.745684211 L14.7225263,2.68315789 Z M15.0677895,2.68315789 L15.2585263,2.68315789 L15.2585263,0.745684211 L15.0677895,0.745684211 L15.0677895,2.68315789 Z M15.4198947,2.68315789 L15.6106316,2.68315789 L15.6106316,0.745684211 L15.4198947,0.745684211 L15.4198947,2.68315789 Z M15.7721053,2.68315789 L15.9628421,2.68315789 L15.9628421,0.745684211 L15.7721053,0.745684211 L15.7721053,2.68315789 Z M16.1243158,2.68315789 L16.3152632,2.68315789 L16.3152632,0.745684211 L16.1243158,0.745684211 L16.1243158,2.68315789 Z M16.4764211,2.68315789 L16.6602105,2.68315789 L16.6602105,0.745684211 L16.4764211,0.745684211 L16.4764211,2.68315789 Z" id="Fill-20" fill="#20C2EF" mask="url(#mask-4)"></path>
                <path d="M17.2112632,8.24147368 L19.5356842,8.24147368 L19.5356842,5.91673684 L17.2112632,5.91673684 L17.2112632,8.24147368 Z M17.4049474,8.048 L17.5883158,8.048 L17.5883158,6.11063158 L17.4049474,6.11063158 L17.4049474,8.048 Z M17.7498947,8.048 L17.9405263,8.048 L17.9405263,6.11063158 L17.7498947,6.11063158 L17.7498947,8.048 Z M18.1021053,8.048 L18.2928421,8.048 L18.2928421,6.11063158 L18.1021053,6.11063158 L18.1021053,8.048 Z M18.4541053,8.048 L18.6448421,8.048 L18.6448421,6.11063158 L18.4541053,6.11063158 L18.4541053,8.048 Z M18.8066316,8.048 L18.9972632,8.048 L18.9972632,6.11063158 L18.8066316,6.11063158 L18.8066316,8.048 Z M19.1588421,8.048 L19.3422105,8.048 L19.3422105,6.11063158 L19.1588421,6.11063158 L19.1588421,8.048 Z" id="Fill-21" fill="#00ACD3" mask="url(#mask-4)"></path>
                <path d="M11.3436526,12.0107158 C11.6978632,12.0107158 11.9851263,12.2978737 11.9851263,12.6517684 C11.9851263,13.0062947 11.6978632,13.2931368 11.3436526,13.2931368 C10.9892316,13.2931368 10.7023895,13.0062947 10.7023895,12.6517684 C10.7023895,12.2978737 10.9892316,12.0107158 11.3436526,12.0107158" id="Fill-22" fill="#D4EDF1" mask="url(#mask-4)"></path>
                <path d="M11.3436526,12.1921474 C11.4022842,12.1921474 11.4581789,12.2036211 11.5095474,12.2235158 C11.4538632,12.2557263 11.4161789,12.3166737 11.4161789,12.3858316 C11.4161789,12.4894105 11.4998632,12.5732 11.6035474,12.5732 C11.6744947,12.5732 11.7361789,12.5341474 11.7677579,12.4755158 C11.7903895,12.5299368 11.8027053,12.5892 11.8027053,12.6517263 C11.8027053,12.9054105 11.5971263,13.1113053 11.3436526,13.1113053 C11.0899684,13.1113053 10.8841789,12.9054105 10.8841789,12.6517263 C10.8841789,12.3983579 11.0899684,12.1921474 11.3436526,12.1921474" id="Fill-23" fill="#394D54" mask="url(#mask-4)"></path>
                <path d="M0,10.6814526 L14.0482105,10.6814526 L15.7854737,10.6814526 L29.8333684,10.6814526 C29.1834737,10.5166105 27.7778947,10.2941895 28.01,9.44282105 C26.8286316,10.8097684 23.98,10.4017684 23.2611579,9.72776842 C22.4608421,10.8890316 17.8003158,10.4475579 17.4752632,9.54292632 C16.4716842,10.7208211 13.3617895,10.7208211 12.3577895,9.54292632 C12.0328421,10.4475579 7.37273684,10.8890316 6.57221053,9.72776842 C5.85305263,10.4017684 3.00473684,10.8097684 1.82357895,9.44282105 C2.05526316,10.2941895 0.649684211,10.5166105 0,10.6814526" id="Fill-24" fill="#394D54" mask="url(#mask-4)"></path>
                <path d="M13.0486316,16.6321158 C11.4602105,15.8783263 10.5883158,14.8541158 10.1031579,13.7353789 C9.51336842,13.9038 8.80431579,14.0113789 7.98031579,14.0576947 C7.66957895,14.0752737 7.34336842,14.0838 7.00063158,14.0838 C6.60547368,14.0838 6.18936842,14.0720105 5.75263158,14.0489579 C7.20905263,15.5047474 9.00063158,16.6253789 12.3184211,16.6456947 C12.5630526,16.6456947 12.8066316,16.6412737 13.0486316,16.6321158" id="Fill-25" fill="#BFDBE0" mask="url(#mask-4)"></path>
                <path d="M10.6931579,14.7673895 C10.4733684,14.4691789 10.2604211,14.0942316 10.1036842,13.7353895 C9.51336842,13.9038105 8.80431579,14.0112842 7.98031579,14.0577053 C8.54610526,14.3649684 9.35589474,14.6493895 10.6931579,14.7673895" id="Fill-26" fill="#D4EDF1" mask="url(#mask-4)"></path>
            </g>
        </g>
    </g>
</svg>