<?xml version="1.0" encoding="UTF-8"?>
<svg width="25px" height="25px" viewBox="0 0 25 25" version="1.1" xmlns="http://www.w3.org/2000/svg" xmlns:xlink="http://www.w3.org/1999/xlink">
    <!-- Generator: Sketch 53.2 (72643) - https://sketchapp.com -->
    <title>fedora</title>
    <desc>Created with Sketch.</desc>
    <defs>
        <polygon id="path-1" points="0 0.112790698 24.8874269 0.112790698 24.8874269 24.8546512 0 24.8546512"></polygon>
    </defs>
    <g id="Page-1" stroke="none" stroke-width="1" fill="none" fill-rule="evenodd">
        <g id="logo-linux" transform="translate(-47.000000, -114.000000)">
            <g id="fedora" transform="translate(47.000000, 114.000000)">
                <g id="Group-3" transform="translate(0.000000, 0.032558)">
                    <mask id="mask-2" fill="white">
                        <use xlink:href="#path-1"></use>
                    </mask>
                    <g id="Clip-2"></g>
                    <path d="M24.8874269,12.4842297 C24.8874269,5.65181686 19.3160819,0.112718023 12.4437135,0.112718023 C5.57426901,0.112718023 0.00540935673,5.6471657 0.000292397661,12.4755087 L0,12.475218 L0,22.0487645 L0.000292397661,22.0490552 C0.00423976608,23.5994913 1.26885965,24.8547238 2.82938596,24.8547238 L2.84298246,24.8542878 L2.84371345,24.8547238 L12.4486842,24.8547238 C19.3188596,24.8519622 24.8874269,19.3150436 24.8874269,12.4842297" id="Fill-1" fill="#072B61" mask="url(#mask-2)"></path>
                </g>
                <path d="M16.106652,3.08309593 C12.8812135,3.08309593 10.2677632,5.68135174 10.2677632,8.88818314 L10.2677632,11.9671076 L7.17083333,11.9671076 C3.94524854,11.9671076 1.33165205,14.5421076 1.33165205,17.7486483 C1.33165205,20.9553343 3.94524854,23.5537355 7.17083333,23.5537355 C10.3961257,23.5537355 13.0098684,20.9553343 13.0098684,17.7486483 L13.0098684,14.6698692 L16.106652,14.6698692 C19.3320906,14.6698692 21.9456871,12.0948692 21.9456871,8.88818314 C21.9456871,5.68135174 19.3320906,3.08309593 16.106652,3.08309593" id="Fill-4" fill="#0A57A4"></path>
                <path d="M16.106652,5.809375 C17.8092836,5.809375 19.2035819,7.19527616 19.2035819,8.88829942 C19.2035819,10.5807413 17.8092836,11.9670785 16.106652,11.9670785 L16.083114,11.9670785 L13.4591374,11.9670785 C13.218348,11.9670785 13.0098684,11.7595203 13.0098684,11.5204215 L13.0098684,8.88829942 C13.0129386,7.1974564 14.4063596,5.809375 16.106652,5.809375" id="Fill-6" fill="#0A57A4"></path>
                <path d="M7.17081871,14.6698401 L9.81847953,14.6698401 C10.0588304,14.6698401 10.2677485,14.8538517 10.2677485,15.0929506 L10.2677485,17.7486192 C10.265117,19.4388808 8.87140351,20.8275436 7.17081871,20.8275436 C5.46833333,20.8275436 4.07388889,19.441061 4.07388889,17.7486192 C4.07388889,16.0558866 5.46833333,14.6698401 7.17081871,14.6698401" id="Fill-8" fill="#0A57A4"></path>
                <path d="M10.2569737,11.961439 L10.2569737,8.88818314 L10.2569737,8.88411337 C10.2569737,5.67742733 12.8715936,3.07786337 16.0971784,3.07786337 C16.5867982,3.07786337 16.9343129,3.13251453 17.3875292,3.25053779 C18.0479094,3.42248547 18.5872368,3.96056686 18.5876754,4.586875 C18.5878216,5.34385174 18.0351901,5.89414244 17.2093129,5.89414244 C16.8154532,5.89414244 16.6734942,5.81928779 16.0970322,5.81928779 C14.3965936,5.81928779 13.0177924,7.18832849 13.0147222,8.87902616 L13.0147222,11.5282994 L13.0147222,11.5287355 C13.0147222,11.767689 13.2091667,11.961439 13.4501023,11.961439 L13.4512719,11.961439 L15.4752485,11.961439 C16.2297807,11.961439 16.8386988,12.561439 16.8392836,13.3133285 C16.8392836,14.0657994 16.2296345,14.6646366 15.4752485,14.6646366 L13.0147222,14.6646366 L13.0147222,17.7511192 L13.0147222,17.7550436 C13.0147222,20.961439 10.3999561,23.561439 7.17451754,23.561439 C6.68504386,23.561439 6.33723684,23.5064971 5.88460526,23.3887645 C5.22393275,23.2169622 4.68416667,22.6784448 4.68402047,22.052282 C4.68402047,21.2953052 5.23665205,20.7448692 6.06282164,20.7448692 C6.45595029,20.7448692 6.59864035,20.8200145 7.17451754,20.8200145 C8.87510234,20.8200145 10.2543421,19.4505378 10.2571199,17.7599855 L10.2571199,15.0969041 C10.2571199,14.8583866 10.0622368,14.6650727 9.82173977,14.6650727 L9.82071637,14.6650727 L7.79659357,14.6646366 C7.0422076,14.6646366 6.43270468,14.0662355 6.43270468,13.3140552 C6.43226608,12.5572238 7.04864035,11.961439 7.81121345,11.961439 L10.2569737,11.961439" id="Fill-10" fill="#FFFFFF"></path>
            </g>
        </g>
    </g>
</svg>