<svg width="12" height="6" viewBox="0 0 12 6" fill="none" xmlns="http://www.w3.org/2000/svg">
<path fill-rule="evenodd" clip-rule="evenodd" d="M12 1.2C12 1.8625 11.449 2.4 10.769 2.4C10.196 2.4 9.714 2.0175 9.577 1.5H7.859C7.558 1.5 7.3015 1.712 7.252 2.0015L7.2015 2.2975C7.15423 2.57117 7.01272 2.81968 6.8015 3C7.0075 3.177 7.1535 3.422 7.2015 3.7025L7.2515 3.9985C7.27734 4.14041 7.35256 4.2686 7.46383 4.36039C7.57511 4.45217 7.71527 4.50163 7.8595 4.5H8.347C8.4835 3.9825 8.9655 3.6 9.539 3.6C10.219 3.6 10.7695 4.1375 10.7695 4.8C10.7695 5.4625 10.218 6 9.539 6C8.9655 6 8.484 5.6175 8.347 5.1H7.8595C7.2575 5.1 6.7445 4.676 6.6455 4.0975L6.595 3.8015C6.56919 3.65976 6.49412 3.5317 6.38305 3.43994C6.27198 3.34818 6.13206 3.29861 5.988 3.3H5.485C5.331 3.792 4.862 4.15 4.307 4.15C3.752 4.15 3.283 3.792 3.1295 3.3H2.4085C2.2545 3.792 1.7855 4.15 1.231 4.15C0.551 4.15 0 3.6125 0 2.95C0 2.2875 0.551 1.75 1.231 1.75C1.8225 1.75 2.317 2.1575 2.435 2.7H3.1035C3.2215 2.1575 3.716 1.75 4.3075 1.75C4.8995 1.75 5.3935 2.1575 5.5115 2.7H5.9875C6.288 2.7 6.545 2.488 6.594 2.1985L6.645 1.9025C6.744 1.324 7.2575 0.9 7.859 0.9H9.577C9.714 0.3825 10.196 0 10.769 0C11.449 0 12 0.5375 12 1.2ZM11.385 1.2C11.385 1.5315 11.109 1.8 10.769 1.8C10.429 1.8 10.154 1.5315 10.154 1.2C10.154 0.8685 10.429 0.6 10.769 0.6C11.109 0.6 11.3845 0.8685 11.3845 1.2H11.385ZM1.2305 3.55C1.5705 3.55 1.8455 3.2815 1.8455 2.95C1.8455 2.6185 1.5705 2.35 1.2305 2.35C0.8905 2.35 0.615 2.6185 0.615 2.95C0.615 3.2815 0.8905 3.55 1.2305 3.55ZM4.307 3.55C4.647 3.55 4.9225 3.2815 4.9225 2.95C4.9225 2.6185 4.6475 2.35 4.3075 2.35C3.9675 2.35 3.692 2.6185 3.692 2.95C3.692 3.2815 3.967 3.55 4.307 3.55ZM9.538 5.4C9.878 5.4 10.153 5.1315 10.153 4.8C10.153 4.4685 9.878 4.2 9.538 4.2C9.198 4.2 8.923 4.4685 8.923 4.8C8.923 5.1315 9.198 5.4 9.538 5.4Z" fill="#EA4B71"/>
</svg>
