<?xml version="1.0" encoding="UTF-8"?>
<svg width="25px" height="25px" viewBox="0 0 12 25" version="1.1" xmlns="http://www.w3.org/2000/svg" xmlns:xlink="http://www.w3.org/1999/xlink">
    <!-- Generator: Sketch 53.2 (72643) - https://sketchapp.com -->
    <title>parallels</title>
    <desc>Created with Sketch.</desc>
    <defs>
        <polygon id="path-1" points="0 0.125038462 3.98069231 0.125038462 3.98069231 24.6153846 0 24.6153846"></polygon>
        <polygon id="path-3" points="0.269230769 0.125038462 4.25 0.125038462 4.25 24.6153846 0.269230769 24.6153846"></polygon>
    </defs>
    <g id="Page-1" stroke="none" stroke-width="1" fill="none" fill-rule="evenodd">
        <g id="app-with-logo" transform="translate(-94.000000, -486.000000)">
            <g id="parallels" transform="translate(94.000000, 486.000000)">
                <g id="Group-3" transform="translate(0.000000, 0.259615)">
                    <mask id="mask-2" fill="white">
                        <use xlink:href="#path-1"></use>
                    </mask>
                    <g id="Clip-2"></g>
                    <path d="M1.99030769,0.125038462 C3.11530769,0.125038462 3.98069231,0.990423077 3.98069231,2.11542308 L3.98069231,22.6250385 C3.98069231,23.6635 3.11530769,24.6154231 1.99030769,24.6154231 C0.865307692,24.6154231 -7.69230769e-05,23.6635 -7.69230769e-05,22.6250385 L-7.69230769e-05,2.11542308 C-7.69230769e-05,0.990423077 0.865307692,0.125038462 1.99030769,0.125038462" id="Fill-1" fill="#FF1A24" mask="url(#mask-2)"></path>
                </g>
                <g id="Group-6" transform="translate(7.692308, 0.259615)">
                    <mask id="mask-4" fill="white">
                        <use xlink:href="#path-3"></use>
                    </mask>
                    <g id="Clip-5"></g>
                    <path d="M2.25961538,0.125038462 C3.38461538,0.125038462 4.25,0.990423077 4.25,2.11542308 L4.25,22.6250385 C4.25,23.6635 3.38461538,24.6154231 2.25961538,24.6154231 C1.22115385,24.6154231 0.269230769,23.6635 0.269230769,22.6250385 L0.269230769,2.11542308 C0.269230769,0.990423077 1.22115385,0.125038462 2.25961538,0.125038462" id="Fill-4" fill="#FF1A24" mask="url(#mask-4)"></path>
                </g>
            </g>
        </g>
    </g>
</svg>
