<svg id="Layer_1" width="41" height="23" data-name="Layer 1" xmlns="http://www.w3.org/2000/svg" viewBox="0 0 41 22.78"><defs><style>.cls-1{fill:#e6e6fc;}.cls-1,.cls-2,.cls-3{fill-rule:evenodd;}.cls-3{fill:#4a4af4;}</style></defs><path class="cls-1" d="M3.12.11H37.88A3.11,3.11,0,0,1,41,3.22V19.78a3.11,3.11,0,0,1-3.12,3.11H3.12A3.12,3.12,0,0,1,0,19.77V3.22A3.11,3.11,0,0,1,3.12.11Z" transform="translate(0 -0.11)"/><path class="cls-2" d="M6.05,12.37a4.73,4.73,0,0,0-2.61.91L4,14.4a3.1,3.1,0,0,1,1.92-.79c.66,0,1,.21,1,.66s-.24.44-.69.5c-1.69.22-3,.68-3,2A1.65,1.65,0,0,0,5.1,18.4a2.21,2.21,0,0,0,1.89-1v.88H8.51V14.52C8.5,13,7.43,12.37,6.05,12.37Zm-.58,4.84c-.43,0-.64-.21-.64-.56,0-.64.72-.86,2-1A1.44,1.44,0,0,1,5.47,17.21Z" transform="translate(0 -0.11)"/><path class="cls-2" d="M22.84,13.5v-1H21.32v5.69H23V15.49c0-1.3.78-1.69,1.34-1.69A1.27,1.27,0,0,1,25,14l.3-1.51a1.93,1.93,0,0,0-.72-.13,1.71,1.71,0,0,0-1.72,1.13Z" transform="translate(0 -0.11)"/><path class="cls-2" d="M32.82,12.37a2.29,2.29,0,0,0-1.84,1,2,2,0,0,0-3.5,0v-.86H25.91v5.69h1.62V15.3c0-1.05.55-1.55,1.07-1.55s.89.3.89,1.07v3.41h1.64V15.3c0-1.07.54-1.55,1.07-1.55s.88.31.88,1.06v3.43h1.63V14.3a1.78,1.78,0,0,0-1.89-1.93Z" transform="translate(0 -0.11)"/><path class="cls-2" d="M14.25,12.11v.43H11.77V12c0-.75.43-1,.8-1a1.45,1.45,0,0,1,.73.19L13.8,10a2.92,2.92,0,0,0-1.43-.33,2.15,2.15,0,0,0-2.22,2.43v.42h-1v1.26h1v4.43h1.62V13.8h2.48v4.44h1.62V13.8h1.49V12.55H15.88V12c0-.75.43-1,.8-1a1.51,1.51,0,0,1,.72.19L17.91,10a2.8,2.8,0,0,0-1.43-.33A2.12,2.12,0,0,0,14.25,12.11Z" transform="translate(0 -0.11)"/><path class="cls-2" d="M18.32,12.54H20v5.69H18.33V12.54Z" transform="translate(0 -0.11)"/><path class="cls-3" d="M27.8,4.6a9.91,9.91,0,0,0-9.41,7H20A8.33,8.33,0,0,1,27.8,6.09,8.47,8.47,0,0,1,36.3,15a11.41,11.41,0,0,1-.45,3.28h1.54l0,0A13.3,13.3,0,0,0,37.79,15c0-6-4.39-10.36-10-10.36" transform="translate(0 -0.11)"/></svg>