<svg id="Layer_1" width="41" height="23" data-name="Layer 1" xmlns="http://www.w3.org/2000/svg" viewBox="0 0 41 22.78"><defs><style>.cls-1{fill:#b3fbe3;fill-rule:evenodd;}</style></defs><path class="cls-1" d="M3.94.11H37.06A3.94,3.94,0,0,1,41,4.05V19a3.94,3.94,0,0,1-3.94,3.94H3.94A3.94,3.94,0,0,1,0,19V4.05A3.93,3.93,0,0,1,3.94.11Z" transform="translate(0 -0.11)"/><path d="M4.35,11.4a1.1,1.1,0,0,0-1-1.14,1.09,1.09,0,0,0-1.14,1v.1a1.07,1.07,0,0,0,1.06,1.1h0a1.07,1.07,0,0,0,1.09-1.06A.06.06,0,0,0,4.35,11.4Zm0,1.93v-.49a1.65,1.65,0,0,1-1.27.56,1.92,1.92,0,0,1-1.93-1.9v-.09a2,2,0,0,1,1.9-2H3.1A1.63,1.63,0,0,1,4.34,10V9.48h1v3.85Z" transform="translate(0 -0.11)"/><path d="M10.12,12.47c-.34,0-.44-.13-.44-.45V10.31h.63V9.47H9.68V8.54h-1v.93H7.37V9.25c0-.32.13-.45.48-.45h.23V8.05H7.59c-.84,0-1.23.26-1.23,1.06v.37H5.81v.83h.56v3h1v-3h1.3V12.2c0,.79.31,1.13,1.13,1.13h.52v-.86Z" transform="translate(0 -0.11)"/><path d="M13.74,11.05a1,1,0,0,0-1-.8,1,1,0,0,0-1,.8Zm-2,.6a1,1,0,0,0,1,.9,1.07,1.07,0,0,0,.94-.49h1a1.94,1.94,0,0,1-2,1.34,1.94,1.94,0,0,1-2.06-2,2,2,0,0,1,2.08-2,2,2,0,0,1,2,1.89v.11a1,1,0,0,1,0,.24Z" transform="translate(0 -0.11)"/><path d="M21.23,11.4a1.09,1.09,0,1,0-1.09,1.1,1.08,1.08,0,0,0,1.08-1.09ZM18.06,9.47h1V10a1.63,1.63,0,0,1,1.27-.57,1.92,1.92,0,0,1,1.92,1.93v.05a2,2,0,0,1-1.9,2h0a1.57,1.57,0,0,1-1.21-.52v2h-1Z" transform="translate(0 -0.11)"/><path d="M25.78,11.4a1.09,1.09,0,1,0-1.08,1.1,1.06,1.06,0,0,0,1.08-1.05Zm0,1.93v-.49a1.63,1.63,0,0,1-1.26.56,1.93,1.93,0,0,1-1.94-1.9v-.09a2,2,0,0,1,1.9-2h.05a1.63,1.63,0,0,1,1.24.55V9.48h1v3.85Z" transform="translate(0 -0.11)"/><path d="M16.29,9.85a1,1,0,0,1,.86-.45,1,1,0,0,1,.43.09v1a1.38,1.38,0,0,0-.72-.18.69.69,0,0,0-.55.75v2.28h-1V9.47h1v.38Z" transform="translate(0 -0.11)"/><path d="M31.37,9.47,28.9,14.9h-1l1-2.1L27.18,9.47h1.19l1,2.23,1-2.23Z" transform="translate(0 -0.11)"/><path d="M39.3,9.39,36.85,8a1.08,1.08,0,0,0-1.48.4,1,1,0,0,0-.14.51v.14a.35.35,0,0,0,.18.31l.47.24a.21.21,0,0,0,.28-.07.3.3,0,0,0,0-.1V9.1a.25.25,0,0,1,.28-.21l.08,0,2.13,1.19a.22.22,0,0,1,.09.3.2.2,0,0,1-.09.09l-2.13,1.19a.24.24,0,0,1-.33-.12.19.19,0,0,1,0-.08v-.19a1.09,1.09,0,0,0-1.12-1,1.11,1.11,0,0,0-.51.14L32.1,11.75a1,1,0,0,0,0,1.8l2.45,1.38A1.08,1.08,0,0,0,36,14.54a1.16,1.16,0,0,0,.15-.51v-.14a.34.34,0,0,0-.19-.31l-.46-.25a.21.21,0,0,0-.28.08.17.17,0,0,0,0,.1v.34a.23.23,0,0,1-.24.23l-.12,0-2.13-1.19a.22.22,0,0,1-.09-.3.2.2,0,0,1,.09-.09l2.15-1.21a.25.25,0,0,1,.33.11.24.24,0,0,1,0,.08v.18a1.09,1.09,0,0,0,1.12,1.06,1.12,1.12,0,0,0,.5-.15l2.46-1.36a1,1,0,0,0,.42-1.39,1,1,0,0,0-.42-.42h0Z" transform="translate(0 -0.11)"/></svg>