<svg id="Layer_1" width="41" height="23" data-name="Layer 1" xmlns="http://www.w3.org/2000/svg" viewBox="0 0 41 22.8"><defs><style>.cls-1{fill:#ffb3c7;}.cls-1,.cls-2{fill-rule:evenodd;}.cls-2{fill:#0a0b09;}</style></defs><path class="cls-1" d="M3.1.1H37.9A3.12,3.12,0,0,1,41,3.2V19.8a3.12,3.12,0,0,1-3.1,3.1H3.1A3.12,3.12,0,0,1,0,19.8V3.2A3.12,3.12,0,0,1,3.1.1Z" transform="translate(0 -0.1)"/><path class="cls-2" d="M37.2,13.5a1,1,0,1,0,1,1,1.07,1.07,0,0,0-1-1ZM34,12.7A1.4,1.4,0,1,0,32.6,14,1.28,1.28,0,0,0,34,12.7Zm0-2.6h1.5v5.2H34V15a2.65,2.65,0,0,1-4.2-2.3,2.71,2.71,0,0,1,2.7-2.8,2.46,2.46,0,0,1,1.5.5v-.3Zm-12.4.7v-.7H20v5.2h1.6V12.9c0-.8.9-1.3,1.5-1.3h0V10.1a2,2,0,0,0-1.5.7Zm-4,1.9A1.4,1.4,0,1,0,16.2,14,1.24,1.24,0,0,0,17.6,12.7Zm.1-2.6h1.5v5.2H17.7V15a2.65,2.65,0,0,1-4.2-2.3,2.71,2.71,0,0,1,2.7-2.8,2.46,2.46,0,0,1,1.5.5v-.3ZM27,10a2,2,0,0,0-1.6.7v-.6H23.9v5.2h1.6V12.6a1.1,1.1,0,0,1,1.2-1.2c.7,0,1.1.4,1.1,1.2v2.8h1.5V12A2.21,2.21,0,0,0,27,10ZM11.1,15.3h1.6V7.8H11.1ZM4,15.3H5.7V7.8H4Zm6-7.5a5.82,5.82,0,0,1-1.8,4.3l2.4,3.3H8.5L5.9,11.9l.7-.5A4.27,4.27,0,0,0,8.3,7.9L10,7.8Z" transform="translate(0 -0.1)"/></svg>