<svg id="Layer_1" width="41" height="23" data-name="Layer 1" xmlns="http://www.w3.org/2000/svg" viewBox="0 0 41 22.8"><defs><style>.cls-1{fill:#b9e8ff;}.cls-1,.cls-2,.cls-3{fill-rule:evenodd;}.cls-2{fill:#0079c1;}.cls-3{fill:#00457c;}</style></defs><path class="cls-1" d="M3.1.1H37.9A3.12,3.12,0,0,1,41,3.2V19.8a3.12,3.12,0,0,1-3.1,3.1H3.1A3.12,3.12,0,0,1,0,19.8V3.2A3.12,3.12,0,0,1,3.1.1Z" transform="translate(0 -0.1)"/><path class="cls-2" d="M26.8,9.5c-.2,1-.9,1-1.6,1h-.4L25,8.7a.22.22,0,0,1,.2-.2h.2a1.56,1.56,0,0,1,1.2.3c.2.1.2.4.2.7M26.4,7H23.7c-.2,0-.3.1-.4.3l-1.1,6.9c0,.1.1.2.2.3h1.4c.1,0,.2-.1.3-.2l.3-2c0-.2.2-.3.4-.3h.9a2.83,2.83,0,0,0,3.1-2.5,2.29,2.29,0,0,0-.3-1.7A2.52,2.52,0,0,0,26.4,7" transform="translate(0 -0.1)"/><path class="cls-3" d="M7.5,9.5c-.2,1-.9,1-1.6,1H5.5l.3-1.8A.22.22,0,0,1,6,8.5h.2a1.56,1.56,0,0,1,1.2.3c.1.1.1.4.1.7M7.2,7H4.5c-.2,0-.4.1-.4.3L3,14.2c0,.1.1.2.2.3H4.5c.2,0,.3-.1.4-.3l.3-1.9c0-.2.2-.3.4-.3h.9A2.83,2.83,0,0,0,9.6,9.5a2.29,2.29,0,0,0-.3-1.7A2.52,2.52,0,0,0,7.2,7m6.2,5a1.43,1.43,0,0,1-1.5,1.2,1.22,1.22,0,0,1-.9-.3.9.9,0,0,1-.2-.9,1.32,1.32,0,0,1,1.4-1.2,1.22,1.22,0,0,1,.9.3.76.76,0,0,1,.3.9m1.8-2.5H14a.22.22,0,0,0-.2.2l-.1.3-.1-.1a1.84,1.84,0,0,0-1.5-.5A3,3,0,0,0,9.2,12a2.64,2.64,0,0,0,.5,2,2,2,0,0,0,1.6.7,2.44,2.44,0,0,0,1.8-.7l-.1.2c0,.1.1.2.2.3h1.2c.2,0,.3-.1.4-.3l.7-4.4a.27.27,0,0,0-.3-.3h0" transform="translate(0 -0.1)"/><path class="cls-2" d="M32.7,12a1.43,1.43,0,0,1-1.5,1.2,1.22,1.22,0,0,1-.9-.3.9.9,0,0,1-.2-.9,1.32,1.32,0,0,1,1.4-1.2,1.22,1.22,0,0,1,.9.3.76.76,0,0,1,.3.9m1.8-2.5H33.2a.22.22,0,0,0-.2.2V10l-.1-.1a1.84,1.84,0,0,0-1.5-.5A3,3,0,0,0,28.5,12a2.64,2.64,0,0,0,.5,2,2,2,0,0,0,1.6.7,2.44,2.44,0,0,0,1.8-.7l-.1.4c0,.1.1.2.2.3h1.2c.2,0,.3-.1.4-.3l.7-4.4c0-.4-.1-.5-.3-.5h0" transform="translate(0 -0.1)"/><path class="cls-3" d="M22.1,9.5H20.8c-.1,0-.2.1-.3.2l-1.8,2.6L18,9.8c0-.2-.2-.3-.4-.3H16.3a.22.22,0,0,0-.2.2v.1L17.5,14l-1.3,1.9c-.1.1,0,.2.1.3h1.4c.1,0,.2-.1.3-.2l4.3-6.2c.1-.1,0-.2-.1-.3h-.1" transform="translate(0 -0.1)"/><path class="cls-2" d="M36,7.2l-1.1,7c0,.1.1.2.2.3h1.1c.2,0,.3-.1.4-.3l1.1-6.9c0-.1-.1-.2-.2-.3H36.2l-.2.2" transform="translate(0 -0.1)"/></svg>